<svg id="ekvzva8n3031" xmlns="http://www.w3.org/2000/svg" xmlns:xlink="http://www.w3.org/1999/xlink" viewBox="0 0 959 554.500000" shape-rendering="geometricPrecision" text-rendering="geometricPrecision"><rect id="ekvzva8n3032" width="241" height="2" rx="0" ry="0" transform="matrix(1 0 0 1 718 399.50000000000000)" fill="rgb(63,61,86)" stroke="none" stroke-width="1"/><polygon id="ekvzva8n3033" points="771.744000,381.531000 778.744000,418.531000 793.744000,422.531000 789.744000,378.531000 771.744000,381.531000" fill="rgb(160,97,106)" stroke="none" stroke-width="1"/><polygon id="ekvzva8n3034" points="855.744000,381.531000 862.744000,418.531000 877.744000,422.531000 873.744000,378.531000 855.744000,381.531000" fill="rgb(160,97,106)" stroke="none" stroke-width="1"/><path id="ekvzva8n3035" d="M908.244090,584.281500C908.244090,584.281500,892.244090,583.281500,892.244090,588.281500C892.244090,593.281500,884.244090,610.281500,884.244090,610.281500C884.244090,610.281500,878.244090,630.281500,894.244090,628.281500C910.244090,626.281500,920.244090,608.281500,920.244090,608.281500L916.244090,589.281500Z" transform="matrix(1 0 0 1 -120.50000000000000 -172.75000000000000)" fill="rgb(47,46,65)" stroke="none" stroke-width="1"/><path id="ekvzva8n3036" d="M988.383000,586.125080C988.383000,586.125080,977.710250,579.264080,978.472590,583.838080C979.234930,588.412080,979.997270,600.609540,985.333650,601.371880C990.670030,602.134220,1006.679140,606.708260,1007.441480,608.232940C1008.203820,609.757620,1026.499960,615.856330,1026.499960,605.945940C1026.499960,596.035550,1015.064870,588.412140,1015.064870,588.412140L1002.105110,578.501730C1002.105110,578.501730,993.719380,577.739390,992.194700,583.075730C990.670020,588.412070,988.383000,586.125080,988.383000,586.125080Z" transform="matrix(1 0 0 1 -120.50000000000000 -172.75000000000000)" fill="rgb(47,46,65)" stroke="none" stroke-width="1"/><path id="ekvzva8n3037" d="M887,343.750000C887,343.750000,870,318.750000,864,326.750000C858,334.750000,879,349.750000,879,349.750000Z" transform="matrix(1 0 0 1 -120.50000000000000 -172.75000000000000)" fill="rgb(160,97,106)" stroke="none" stroke-width="1"/><path id="ekvzva8n3038" d="M893,367.750000C892,366.750000,874,349.750000,874,349.750000L887,340.750000L902,355.750000Z" transform="matrix(1 0 0 1 -120.50000000000000 -172.75000000000000)" fill="rgb(87,90,137)" stroke="none" stroke-width="1"/><path id="ekvzva8n3039" d="M895.500000,290.250000C895.500000,290.250000,882.500000,291.250000,883.500000,302.250000C884.500000,313.250000,893,349.750000,893,349.750000L898,359.750000C898,359.750000,916.500000,302.250000,895.500000,290.250000Z" transform="matrix(1 0 0 1 -120.50000000000000 -172.75000000000000)" fill="rgb(87,90,137)" stroke="none" stroke-width="1"/><path id="ekvzva8n30310" d="M896.500000,255.250000L900.100000,267.250000L945.200000,267.250000L946.500050,254.250000L950.400050,267.250000L956.200000,267.250000L957.500050,254.250000L961.400050,267.250000L967.500050,267.250000L961.764700,253.433170C959.100147,246.828056,957.075249,239.982604,955.717820,232.990840C952.030083,215.093497,936.273322,202.251395,918,202.250000L918,202.250000Q917.202570,202.250000,916.413090,202.282100C891.134770,203.307010,874.945800,229.778500,884.644900,253.144470L890.500000,267.250000L895.300050,267.250000Z" transform="matrix(1 0 0 1 -120.50000000000000 -172.75000000000000)" fill="rgb(47,46,65)" stroke="none" stroke-width="1"/><path id="ekvzva8n30311" d="M896,359.750000C896,359.750000,865,385.750000,874,420.750000C883,455.750000,886,565.750000,886,565.750000L917,562.750000L917,424.750000L960,506.750000L967,565.750000L1002,559.750000L986,487.750000L955.231270,395.972000L952,369.494090Z" transform="matrix(1 0 0 1 -120.50000000000000 -172.75000000000000)" fill="rgb(47,46,65)" stroke="none" stroke-width="1"/><circle id="ekvzva8n30312" r="21" transform="matrix(1 0 0 1 797 62.50000000000000)" fill="rgb(160,97,106)" stroke="none" stroke-width="1"/><path id="ekvzva8n30313" d="M905,249.750000C905,249.750000,914,282.750000,909,286.750000C904,290.750000,944,273.750000,944,273.750000C944,273.750000,927,254.750000,929,246.750000Z" transform="matrix(1 0 0 1 -120.50000000000000 -172.75000000000000)" fill="rgb(160,97,106)" stroke="none" stroke-width="1"/><path id="ekvzva8n30314" d="M942,266.750000C942,266.750000,925.988610,280.522110,910.494300,281.636050C910.494300,281.636050,890,292.750000,891,293.750000C892,294.750000,895,308.750000,895,308.750000C895,308.750000,900,316.471180,900,332.750000C900,334.750000,893,362.750000,893,362.750000L952,370.750000C952,370.750000,968,318.750000,969,300.750000C970,282.750000,976,263.750000,967,262.750000C958,261.750000,942,266.750000,942,266.750000Z" transform="matrix(1 0 0 1 -120.50000000000000 -172.75000000000000)" fill="rgb(87,90,137)" stroke="none" stroke-width="1"/><path id="ekvzva8n30315" d="M965,266.750000C965,266.750000,972,260.750000,976,274.750000C980,288.750000,996,332.750000,992,341.750000C988,350.750000,964,390.750000,964,390.750000L952,382.750000L976,337.750000L962,305.750000Z" transform="matrix(1 0 0 1 -120.50000000000000 -172.75000000000000)" fill="rgb(87,90,137)" stroke="none" stroke-width="1"/><path id="ekvzva8n30316" d="M957,381.750000C957,381.750000,926,400.750000,936,404.750000C946,408.750000,963,387.750000,963,387.750000Z" transform="matrix(1 0 0 1 -120.50000000000000 -172.75000000000000)" fill="rgb(160,97,106)" stroke="none" stroke-width="1"/><polygon id="ekvzva8n30317" points="774,38.500000 774,59.500000 782,59.500000 785,50.500000 785.750000,59.500000 808,59.500000 811,50.500000 811.750000,59.500000 821,59.500000 821,38.500000 774,38.500000" fill="rgb(47,46,65)" stroke="none" stroke-width="1"/><path id="ekvzva8n30318" d="M894.500000,310.250000C894.500000,310.250000,892.500000,330.250000,895.500000,334.250000C898.500000,338.250000,894.500000,310.250000,894.500000,310.250000Z" transform="matrix(1 0 0 1 -120.50000000000000 -172.75000000000000)" opacity="0.2" fill="rgb(0,0,0)" stroke="none" stroke-width="1"/><rect id="ekvzva8n30319" width="424" height="2" rx="0" ry="0" transform="matrix(1 0 0 1 177 486.50000000000000)" fill="rgb(63,61,86)" stroke="none" stroke-width="1"/><path id="ekvzva8n30320" d="M695.710000,507.360000L572.690000,630.380000C533.526448,669.540001,470.033552,669.540001,430.870000,630.380000C429.210000,628.720000,427.610000,627.010000,426.090000,625.250000C423.585371,622.389798,421.251331,619.384597,419.100000,616.250000C411.209674,604.836445,405.812467,591.888600,403.260000,578.250000Q402.405000,573.795000,401.970000,569.250000Q401.505000,564.404940,401.500000,559.470000C401.491355,550.269376,402.742988,541.110924,405.220000,532.250000Q406.495060,527.675000,408.210000,523.250000C413.260324,510.232349,420.979110,498.415725,430.870000,488.560000L484.540000,434.890000C490.396980,429.033020,499.893020,429.033020,505.750000,434.890000C511.606980,440.746980,511.606980,450.243020,505.750000,456.100000L452.080000,509.770000C448.024570,513.819410,444.475314,518.345803,441.510000,523.250000C434.924407,534.180996,431.462217,546.708524,431.500000,559.470000C431.501032,562.741431,431.724883,566.008992,432.170000,569.250000C432.587619,572.288295,433.209037,575.295075,434.030050,578.250000C440.697947,602.357731,459.678209,621.103686,483.866903,627.471627C508.055596,633.839569,533.805904,626.869432,551.480000,609.170000L582.400000,578.250000L637.400000,523.250000L674.500000,486.150000C698.575217,462.007739,701.890732,424.083637,682.370000,396.130000C677.735373,389.335130,679.434817,380.075645,686.180301,375.369430C692.925785,370.663215,702.202722,372.264656,706.980000,378.960000C734.795235,418.846536,730.048292,472.928840,695.710000,507.360000Z" transform="matrix(1.00651013000383 0.00104248971454 -0.00103743929408 1.00163401536864 -120.50000000000000 -172.75000000000000)" fill="rgb(63,61,86)" stroke="none" stroke-width="1"/><path id="ekvzva8n30321" d="M896.490409,272.956015Q896.490409,274.065195,896.459668,275.174376C896.195624,288.255101,893.295313,301.157394,887.923941,313.146329C886.547774,316.220025,885.008651,319.221863,883.312803,322.139686C878.708454,330.079654,873.016928,337.371291,866.395052,343.813677L811.399553,397.444064C805.395430,403.282519,795.676773,403.275779,789.681171,397.429002C783.685570,391.582224,783.678658,382.104806,789.665726,376.249719L844.661225,322.619332C844.825176,322.459450,844.989128,322.299568,845.142832,322.139686C857.833534,309.578660,865.180636,292.800269,865.708505,275.174376C865.739246,274.434922,865.749493,273.695469,865.749493,272.956015Q865.749493,269.538539,865.421590,266.181019C863.816697,249.968232,856.476935,234.805202,844.661225,223.292698C843.564799,222.223487,842.447879,221.194248,841.289971,220.214971C814.093683,196.898860,773.373865,196.898860,746.177577,220.214971C745.019669,221.194248,743.902749,222.223487,742.806323,223.292698L616.748073,346.221898C588.671362,373.670266,588.671362,418.100165,616.748073,445.548532C622.749704,451.401189,622.749704,460.890221,616.748073,466.742878C610.746442,472.595534,601.015876,472.595534,595.014245,466.742878C554.948608,427.583428,554.948608,364.187053,595.014245,325.027603L721.072495,202.098352C743.290064,180.477399,774.414546,169.931488,805.592941,173.460284C836.771335,176.989079,864.591550,194.206398,881.140445,220.214971C883.001087,223.122154,884.701092,226.124220,886.233190,229.208328C891.997254,240.783461,895.400798,253.340235,896.254729,266.181019Q896.485286,269.553528,896.490409,272.956015Z" transform="matrix(0.92076954422021 -0.00066253309999 0.00067377754463 0.93639675162284 -83.85971798377921 -144.83434508799394)" fill="rgb(63,61,86)" stroke="none" stroke-width="1"/><path id="ekvzva8n30322" d="M245.815500,699.415670C241.234410,716.350120,225.543150,726.838050,225.543150,726.838050C225.543150,726.838050,217.279300,709.869810,221.860390,692.935360C226.441480,676.000910,242.132740,665.513000,242.132740,665.513000C242.132740,665.513000,250.396580,682.481220,245.815500,699.415670Z" transform="matrix(1 0 0 1 -120.50000000000000 -172.75000000000000)" fill="rgb(108,99,255)" stroke="none" stroke-width="1"/><path id="ekvzva8n30323" d="M204.140380,699.415670C208.721470,716.350120,224.412730,726.838050,224.412730,726.838050C224.412730,726.838050,232.676570,709.869810,228.095490,692.935360C223.514410,676.000910,207.823140,665.513000,207.823140,665.513000C207.823140,665.513000,199.559290,682.481220,204.140380,699.415670Z" transform="matrix(1 0 0 1 -120.50000000000000 -172.75000000000000)" fill="rgb(108,99,255)" stroke="none" stroke-width="1"/><path id="ekvzva8n30324" d="M210.872000,695.776270C223.442570,708.013270,224.978000,726.824270,224.978000,726.824270C224.978000,726.824270,206.132480,725.795270,193.561910,713.558350C180.991340,701.321430,179.455910,682.510350,179.455910,682.510350C179.455910,682.510350,198.301390,683.539330,210.872000,695.776270Z" transform="matrix(1 0 0 1 -120.50000000000000 -172.75000000000000)" fill="rgb(63,61,86)" stroke="none" stroke-width="1"/><path id="ekvzva8n30325" d="M239.083910,695.776270C226.513340,708.013270,224.977910,726.824270,224.977910,726.824270C224.977910,726.824270,243.823430,725.795270,256.394000,713.558350C268.964570,701.321430,270.500000,682.510350,270.500000,682.510350C270.500000,682.510350,251.654480,683.539330,239.083910,695.776270Z" transform="matrix(1 0 0 1 -120.50000000000000 -172.75000000000000)" fill="rgb(63,61,86)" stroke="none" stroke-width="1"/><path id="ekvzva8n30326" d="M803.500000,271.250000C803.499686,272.593301,803.365693,273.933237,803.100000,275.250000C801.197163,284.562259,793.004681,291.250000,783.500000,291.250000C773.995319,291.250000,765.802837,284.562259,763.900000,275.250000C763.297786,272.270972,763.376410,269.194380,764.130000,266.250000C766.639787,256.488490,776.021094,250.119763,786.019775,251.389598C796.018456,252.659434,803.509962,261.171012,803.500000,271.250000Z" transform="matrix(1 0 0 1 -120.50000000000000 -172.75000000000000)" fill="rgb(63,61,86)" stroke="none" stroke-width="1"/><path id="ekvzva8n30327" d="M508.500000,574.250000C508.499686,575.593301,508.365693,576.933237,508.100000,578.250000C506.197163,587.562259,498.004681,594.250000,488.500000,594.250000C478.995319,594.250000,470.802837,587.562259,468.900000,578.250000C468.297786,575.270972,468.376410,572.194380,469.130000,569.250000C471.639787,559.488490,481.021094,553.119763,491.019775,554.389598C501.018456,555.659434,508.509962,564.171012,508.500000,574.250000Z" transform="matrix(1 0 0 1 -120.50000000000000 -172.75000000000000)" fill="rgb(63,61,86)" stroke="none" stroke-width="1"/><rect id="ekvzva8n30328" width="231" height="2" rx="0" ry="0" transform="matrix(1 0 0 1 0 552.50000000000000)" fill="rgb(63,61,86)" stroke="none" stroke-width="1"/><path id="ekvzva8n30329" d="M802.870000,266.250000C803.623590,269.194380,803.702214,272.270972,803.100000,275.250000L763.900000,275.250000C763.297786,272.270972,763.376410,269.194380,764.130000,266.250000Z" transform="matrix(1 0 0 1 -120.50000000000000 -172.75000000000000)" fill="rgb(108,99,255)" stroke="none" stroke-width="1"/><path id="ekvzva8n30330" d="M508.500000,574.250000C508.499686,575.593301,508.365693,576.933237,508.100000,578.250000L468.900000,578.250000C468.297786,575.270972,468.376410,572.194380,469.130000,569.250000L507.870000,569.250000C508.288450,570.883728,508.500105,572.563534,508.500000,574.250000Z" transform="matrix(1 0 0 1 -120.50000000000000 -172.75000000000000)" fill="rgb(108,99,255)" stroke="none" stroke-width="1"/><path id="ekvzva8n30331" d="M436.094000,342.484390C428.448600,329.566040,413.322810,328.963990,413.322810,328.963990C413.322810,328.963990,398.583580,327.079150,389.128460,346.753990C380.315530,365.092520,368.152570,382.798750,387.170320,387.091670L390.605480,376.399920L392.732860,387.887650C395.440626,388.082403,398.157021,388.128829,400.869860,388.026720C421.236330,387.369170,440.632320,388.219100,440.007800,380.910720C439.177560,371.195300,443.450370,354.914420,436.094000,342.484390Z" transform="matrix(1 0 0 1 -120.50000000000000 -172.75000000000000)" fill="rgb(47,46,65)" stroke="none" stroke-width="1"/><polygon id="ekvzva8n30332" points="260.500000,455 261.500000,481 279.500000,481 278.500000,453 260.500000,455" fill="rgb(251,190,190)" stroke="none" stroke-width="1"/><path id="ekvzva8n30333" d="M430,443.750000L428.180000,449.800000L404.600000,528.130000L402,536.750000L404,628.750000L379,631.750000C379,631.750000,378.270000,622.090000,377.200000,607.830000C375.050000,579.590000,371.530000,533.280000,369.490000,508.080000C368.740000,498.760000,368.200000,492.330000,368,490.750000C367,482.750000,380,442.750000,380,442.750000L406,440.750000Z" transform="matrix(1 0 0 1 -120.50000000000000 -172.75000000000000)" fill="rgb(47,46,65)" stroke="none" stroke-width="1"/><path id="ekvzva8n30334" d="M387,650.750000C387,650.750000,380,642.750000,379,648.750000C378,654.750000,366,677.750000,366,677.750000C366,677.750000,331,700.750000,361,702.750000C361,702.750000,376,700.750000,381,692.750000C381,692.750000,389,687.750000,391,687.750000C393,687.750000,405,683.750000,403,677.750000C401,671.750000,402,649.750000,402,649.750000Z" transform="matrix(1 0 0 1 -120.50000000000000 -172.75000000000000)" fill="rgb(47,46,65)" stroke="none" stroke-width="1"/><polygon id="ekvzva8n30335" points="265.500000,431 274.500000,448 288.500000,441 279.500000,421 265.500000,431" fill="rgb(251,190,190)" stroke="none" stroke-width="1"/><path id="ekvzva8n30336" d="M379,554.750000C379,554.750000,371.540000,538.450000,369.500000,513.250000C383.980000,497.070000,401.500000,479.250000,401.500000,479.250000L422.500000,478.250000L429,477.750000C430.520000,492.950000,417.660000,512.530000,404.600000,528.130000C396.663555,537.558631,388.111516,546.451415,379,554.750000Z" transform="matrix(1 0 0 1 -120.50000000000000 -172.75000000000000)" opacity="0.2" fill="rgb(0,0,0)" stroke="none" stroke-width="1"/><path id="ekvzva8n30337" d="M405,478.750000C405,478.750000,341,534.750000,350,557.750000C359,580.750000,384,608.750000,384,608.750000L403.314610,597.222000L385,554.750000C385,554.750000,392.678090,547.941130,402.024000,537.852340C417.232750,521.434750,436.858150,496.331480,435,477.750000L434,443.750000L417,445.750000Z" transform="matrix(1 0 0 1 -120.50000000000000 -172.75000000000000)" fill="rgb(47,46,65)" stroke="none" stroke-width="1"/><path id="ekvzva8n30338" d="M399,616.750000C399,616.750000,392,616.750000,393,622.750000C394,628.750000,396,638.750000,396,638.750000C396,638.750000,388,685.750000,407,674.750000C426,663.750000,421,634.750000,421,634.750000C421,634.750000,428,616.750000,419,614.750000C410,612.750000,407,610.750000,406,611.750000C405,612.750000,399,616.750000,399,616.750000Z" transform="matrix(1 0 0 1 -120.50000000000000 -172.75000000000000)" fill="rgb(47,46,65)" stroke="none" stroke-width="1"/><circle id="ekvzva8n30339" r="18" transform="matrix(1 0 0 1 292.50000000000000 181)" fill="rgb(251,190,190)" stroke="none" stroke-width="1"/><path id="ekvzva8n30340" d="M406,360.750000C406,360.750000,414,381.750000,411,382.750000C408,383.750000,402,388.750000,402,388.750000L412,397.750000L438,383.750000C438,383.750000,426,367.750000,427,360.750000Z" transform="matrix(1 0 0 1 -120.50000000000000 -172.75000000000000)" fill="rgb(251,190,190)" stroke="none" stroke-width="1"/><path id="ekvzva8n30341" d="M438,379.750000C438,379.750000,417.075330,390.065000,409.537660,383.407480C409.537660,383.407480,397,382.750000,395,389.750000C393,396.750000,397,402.750000,392,404.750000C387,406.750000,383.500000,412.250000,386.500000,421.250000C389.500000,430.250000,389,431.750000,385,434.750000C381,437.750000,377,443.750000,377,445.750000C377,447.750000,373,447.750000,375,449.750000C377,451.750000,373,449.750000,377,451.750000C381,453.750000,392,435.750000,400,444.750000C408,453.750000,433,468.750000,435,459.750000C437,450.750000,443,428.750000,443,428.750000C443,428.750000,464,389.750000,458,385.750000C452,381.750000,438,379.750000,438,379.750000Z" transform="matrix(1 0 0 1 -120.50000000000000 -172.75000000000000)" fill="rgb(207,204,224)" stroke="none" stroke-width="1"/><path id="ekvzva8n30342" d="M435,449.750000C435,449.750000,424,447.750000,421,454.750000C418,461.750000,401,477.750000,412,478.750000C423,479.750000,431,461.750000,431,461.750000L442,459.750000Z" transform="matrix(1 0 0 1 -120.50000000000000 -172.75000000000000)" fill="rgb(251,190,190)" stroke="none" stroke-width="1"/><path id="ekvzva8n30343" d="M446,385.750000L459.078130,386.478350C459.078130,386.478350,465,392.750000,466,398.750000C467,404.750000,486,449.750000,474,454.750000C462,459.750000,436,462.750000,436,462.750000L433,448.750000L450,442.750000L438,417.750000Z" transform="matrix(1 0 0 1 -120.50000000000000 -172.75000000000000)" fill="rgb(207,204,224)" stroke="none" stroke-width="1"/><polygon id="ekvzva8n30344" points="266,382.500000 282.449000,423.623000 263,382.500000 280,364.500000 266,382.500000" opacity="0.2" fill="rgb(0,0,0)" stroke="none" stroke-width="1"/><polygon id="ekvzva8n30345" points="256.143000,427.766000 263,436.500000 258,436.500000 256.143000,427.766000" opacity="0.2" fill="rgb(0,0,0)" stroke="none" stroke-width="1"/><circle id="ekvzva8n30346" r="10.936800" transform="matrix(1 0 0 1 294.67399999999998 156.27900000000000)" fill="rgb(47,46,65)" stroke="none" stroke-width="1"/><path id="ekvzva8n30347" d="M403.086000,326.151330C403.086561,320.557121,407.308430,315.865086,412.871540,315.276030C412.489125,315.235513,412.104855,315.214991,411.720300,315.214550C407.810476,315.210811,404.196048,317.294531,402.240056,320.679916C400.284064,324.065302,400.284064,328.237348,402.240056,331.622734C404.196048,335.008119,407.810476,337.091839,411.720300,337.088100C412.104855,337.087659,412.489125,337.067137,412.871540,337.026620C407.308432,336.437568,403.086562,331.745537,403.086000,326.151330Z" transform="matrix(1 0 0 1 -120.50000000000000 -172.75000000000000)" fill="rgb(47,46,65)" stroke="none" stroke-width="1"/><polygon id="ekvzva8n30348" points="312.214000,168.489000 297.270000,160.662000 276.634000,163.864000 272.364000,182.721000 282.993000,182.312000 285.962000,175.384000 285.962000,182.198000 290.866000,182.009000 293.712000,170.980000 295.491000,182.721000 312.925000,182.365000 312.214000,168.489000" fill="rgb(47,46,65)" stroke="none" stroke-width="1"/><script><![CDATA[!function(t,n){"object"==typeof exports&&"undefined"!=typeof module?module.exports=n():"function"==typeof define&&define.amd?define(n):(t=t||self).__SVGATOR_PLAYER__=n()}(this,(function(){"use strict";function t(n){return(t="function"==typeof Symbol&&"symbol"==typeof Symbol.iterator?function(t){return typeof t}:function(t){return t&&"function"==typeof Symbol&&t.constructor===Symbol&&t!==Symbol.prototype?"symbol":typeof t})(n)}function n(t,n){if(!(t instanceof n))throw new TypeError("Cannot call a class as a function")}function r(t,n){for(var r=0;r<n.length;r++){var e=n[r];e.enumerable=e.enumerable||!1,e.configurable=!0,"value"in e&&(e.writable=!0),Object.defineProperty(t,e.key,e)}}function e(t,n,e){return n&&r(t.prototype,n),e&&r(t,e),t}function i(t){return(i=Object.setPrototypeOf?Object.getPrototypeOf:function(t){return t.__proto__||Object.getPrototypeOf(t)})(t)}function o(t,n){return(o=Object.setPrototypeOf||function(t,n){return t.__proto__=n,t})(t,n)}function u(t,n){return!n||"object"!=typeof n&&"function"!=typeof n?function(t){if(void 0===t)throw new ReferenceError("this hasn't been initialised - super() hasn't been called");return t}(t):n}function a(t){var n=function(){if("undefined"==typeof Reflect||!Reflect.construct)return!1;if(Reflect.construct.sham)return!1;if("function"==typeof Proxy)return!0;try{return Date.prototype.toString.call(Reflect.construct(Date,[],(function(){}))),!0}catch(t){return!1}}();return function(){var r,e=i(t);if(n){var o=i(this).constructor;r=Reflect.construct(e,arguments,o)}else r=e.apply(this,arguments);return u(this,r)}}function l(t,n,r){return(l="undefined"!=typeof Reflect&&Reflect.get?Reflect.get:function(t,n,r){var e=function(t,n){for(;!Object.prototype.hasOwnProperty.call(t,n)&&null!==(t=i(t)););return t}(t,n);if(e){var o=Object.getOwnPropertyDescriptor(e,n);return o.get?o.get.call(r):o.value}})(t,n,r||t)}var f=Math.abs;function s(t){return t}function c(t,n,r){var e=1-r;return 3*r*e*(t*e+n*r)+r*r*r}function h(){var t=arguments.length>0&&void 0!==arguments[0]?arguments[0]:0,n=arguments.length>1&&void 0!==arguments[1]?arguments[1]:0,r=arguments.length>2&&void 0!==arguments[2]?arguments[2]:1,e=arguments.length>3&&void 0!==arguments[3]?arguments[3]:1;return t<0||t>1||r<0||r>1?null:f(t-n)<=1e-5&&f(r-e)<=1e-5?s:function(i){if(i<=0)return t>0?i*n/t:0===n&&r>0?i*e/r:0;if(i>=1)return r<1?1+(i-1)*(e-1)/(r-1):1===r&&t<1?1+(i-1)*(n-1)/(t-1):1;for(var o,u=0,a=1;u<a;){var l=c(t,r,o=(u+a)/2);if(f(i-l)<1e-5)break;l<i?u=o:a=o}return c(n,e,o)}}function v(){return 1}function y(t){return 1===t?1:0}function d(){var t=arguments.length>0&&void 0!==arguments[0]?arguments[0]:1,n=arguments.length>1&&void 0!==arguments[1]?arguments[1]:0;if(1===t){if(0===n)return y;if(1===n)return v}var r=1/t;return function(t){return t>=1?1:(t+=n*r)-t%r}}function g(t){var n=arguments.length>1&&void 0!==arguments[1]?arguments[1]:2;if(Number.isInteger(t))return t;var r=Math.pow(10,n);return Math.round(t*r)/r}var p=Math.PI/180;function m(t,n,r){return t>=.5?r:n}function w(t,n,r){return 0===t||n===r?n:t*(r-n)+n}function b(t,n,r){var e=w(t,n,r);return e<=0?0:e}function k(t,n,r){return 0===t?n:1===t?r:{x:w(t,n.x,r.x),y:w(t,n.y,r.y)}}function x(t,n,r){var e=function(t,n,r){return Math.round(w(t,n,r))}(t,n,r);return e<=0?0:e>=255?255:e}function A(t,n,r){return 0===t?n:1===t?r:{r:x(t,n.r,r.r),g:x(t,n.g,r.g),b:x(t,n.b,r.b),a:w(t,null==n.a?1:n.a,null==r.a?1:r.a)}}function _(t,n,r){if(0===t)return n;if(1===t)return r;var e=n.length;if(e!==r.length)return m(t,n,r);for(var i=[],o=0;o<e;o++)i.push(A(t,n[o],r[o]));return i}function S(t,n){for(var r=[],e=0;e<t;e++)r.push(n);return r}function O(t,n){if(--n<=0)return t;var r=(t=Object.assign([],t)).length;do{for(var e=0;e<r;e++)t.push(t[e])}while(--n>0);return t}var M,j=function(){function t(r){n(this,t),this.list=r,this.length=r.length}return e(t,[{key:"setAttribute",value:function(t,n){for(var r=this.list,e=0;e<this.length;e++)r[e].setAttribute(t,n)}},{key:"removeAttribute",value:function(t){for(var n=this.list,r=0;r<this.length;r++)n[r].removeAttribute(t)}},{key:"style",value:function(t,n){for(var r=this.list,e=0;e<this.length;e++)r[e].style[t]=n}}]),t}(),F=/-./g,P=function(t,n){return n.toUpperCase()};function I(t){return"function"==typeof t?t:m}function q(t){return t?"function"==typeof t?t:Array.isArray(t)?function(t){var n=arguments.length>1&&void 0!==arguments[1]?arguments[1]:s;if(!Array.isArray(t))return n;switch(t.length){case 1:return d(t[0])||n;case 2:return d(t[0],t[1])||n;case 4:return h(t[0],t[1],t[2],t[3])||n}return n}(t,null):function(t,n){var r=arguments.length>2&&void 0!==arguments[2]?arguments[2]:s;switch(t){case"linear":return s;case"steps":return d(n.steps||1,n.jump||0)||r;case"bezier":case"cubic-bezier":return h(n.x1||0,n.y1||0,n.x2||0,n.y2||0)||r}return r}(t.type,t.value,null):null}function B(t,n,r){var e=arguments.length>3&&void 0!==arguments[3]&&arguments[3],i=n.length-1;if(t<=n[0].t)return e?[0,0,n[0].v]:n[0].v;if(t>=n[i].t)return e?[i,1,n[i].v]:n[i].v;var o,u=n[0],a=null;for(o=1;o<=i;o++){if(!(t>n[o].t)){a=n[o];break}u=n[o]}return null==a?e?[i,1,n[i].v]:n[i].v:u.t===a.t?e?[o,1,a.v]:a.v:(t=(t-u.t)/(a.t-u.t),u.e&&(t=u.e(t)),e?[o,t,r(t,u.v,a.v)]:r(t,u.v,a.v))}function R(t,n){var r=arguments.length>2&&void 0!==arguments[2]?arguments[2]:null;return t&&t.length?"function"!=typeof n?null:("function"!=typeof r&&(r=null),function(e){var i=B(e,t,n);return null!=i&&r&&(i=r(i)),i}):null}function E(t,n){return t.t-n.t}function T(n,r,e,i,o){var u,a="@"===e[0],l="#"===e[0],f=M[e],s=m;switch(a?(u=e.substr(1),e=u.replace(F,P)):l&&(e=e.substr(1)),t(f)){case"function":if(s=f(i,o,B,q,e,a,r,n),l)return s;break;case"string":s=R(i,I(f));break;case"object":if((s=R(i,I(f.i),f.f))&&"function"==typeof f.u)return f.u(r,s,e,a,n)}return s?function(t,n,r){var e=arguments.length>3&&void 0!==arguments[3]&&arguments[3];if(e)return t instanceof j?function(e){return t.style(n,r(e))}:function(e){return t.style[n]=r(e)};if(Array.isArray(n)){var i=n.length;return function(e){var o=r(e);if(null==o)for(var u=0;u<i;u++)t[u].removeAttribute(n);else for(var a=0;a<i;a++)t[a].setAttribute(n,o)}}return function(e){var i=r(e);null==i?t.removeAttribute(n):t.setAttribute(n,i)}}(r,e,s,a):null}function z(n,r,e,i){if(!i||"object"!==t(i))return null;var o=null,u=null;return Array.isArray(i)?u=function(t){if(!t||!t.length)return null;for(var n=0;n<t.length;n++)t[n].e&&(t[n].e=q(t[n].e));return t.sort(E)}(i):(u=i.keys,o=i.data||null),u?T(n,r,e,u,o):null}function C(t,n,r){if(!r)return null;var e=[];for(var i in r)if(r.hasOwnProperty(i)){var o=z(t,n,i,r[i]);o&&e.push(o)}return e.length?e:null}function D(t,n){if(!n.duration||n.duration<0)return null;var r=function(t,n){if(!n)return null;var r=[];if(Array.isArray(n))for(var e=n.length,i=0;i<e;i++){var o=n[i];if(2===o.length){var u=null;if("string"==typeof o[0])u=t.getElementById(o[0]);else if(Array.isArray(o[0])){u=[];for(var a=0;a<o[0].length;a++)if("string"==typeof o[0][a]){var l=t.getElementById(o[0][a]);l&&u.push(l)}u=u.length?1===u.length?u[0]:new j(u):null}if(u){var f=C(t,u,o[1]);f&&(r=r.concat(f))}}}else for(var s in n)if(n.hasOwnProperty(s)){var c=t.getElementById(s);if(c){var h=C(t,c,n[s]);h&&(r=r.concat(h))}}return r.length?r:null}(t,n.elements);return r?function(t,n){var r=arguments.length>2&&void 0!==arguments[2]?arguments[2]:1/0,e=arguments.length>3&&void 0!==arguments[3]?arguments[3]:1,i=arguments.length>4&&void 0!==arguments[4]&&arguments[4],o=arguments.length>5&&void 0!==arguments[5]?arguments[5]:1,u=t.length,a=e>0?n:0;i&&r%2==0&&(a=n-a);var l=null;return function(f,s){var c=f%n,h=1+(f-c)/n;s*=e,i&&h%2==0&&(s=-s);var v=!1;if(h>r)c=a,v=!0,-1===o&&(c=e>0?0:n);else if(s<0&&(c=n-c),c===l)return!1;l=c;for(var y=0;y<u;y++)t[y](c);return v}}(r,n.duration,n.iterations||1/0,n.direction||1,!!n.alternate,n.fill||1):null}function N(t,n){if(M=n,!t||!t.root||!Array.isArray(t.animations))return null;var r=window.document.getElementById(t.root);if(!r)return null;var e=t.animations.map((function(t){return D(r,t)})).filter((function(t){return!!t}));return e.length?{element:r,animations:e,animationSettings:t.animationSettings,options:t.options||void 0}:null}var L=function(){function t(r,e){var i=arguments.length>2&&void 0!==arguments[2]?arguments[2]:{};n(this,t),this._id=0,this._running=!1,this._rollingBack=!1,this._animations=r,this.duration=e.duration,this.alternate=e.alternate,this.fill=e.fill,this.iterations=e.iterations,this.direction=i.direction||1,this.speed=i.speed||1,this.fps=i.fps||100,this.offset=i.offset||0,this.rollbackStartOffset=0}return e(t,[{key:"_rollback",value:function(){var t=this,n=1/0,r=null;this.rollbackStartOffset=this.offset,this._rollingBack||(this._rollingBack=!0,this._running=!0);this._id=window.requestAnimationFrame((function e(i){if(t._rollingBack){null==r&&(r=i);var o=i-r,u=t.rollbackStartOffset-o,a=Math.round(u*t.speed);if(a>t.duration&&n!=1/0){var l=!!t.alternate&&a/t.duration%2>1,f=a%t.duration;a=(f+=l?t.duration:0)||t.duration}var s=t.fps?1e3/t.fps:0,c=Math.max(0,a);if(c<n-s){t.offset=c,n=c;for(var h=t._animations,v=h.length,y=0;y<v;y++)h[y](c,t.direction)}var d=!1;if(t.iterations>0&&-1===t.fill){var g=t.iterations*t.duration,p=g==a;a=p?0:a,t.offset=p?0:t.offset,d=a>g}a>0&&t.offset>=a&&!d?t._id=window.requestAnimationFrame(e):t.stop()}}))}},{key:"_start",value:function(){var t=this,n=arguments.length>0&&void 0!==arguments[0]?arguments[0]:0,r=-1/0,e=null,i={},o=function o(u){t._running=!0,null==e&&(e=u);var a=Math.round((u-e+n)*t.speed),l=t.fps?1e3/t.fps:0;if(a>r+l&&!t._rollingBack){t.offset=a,r=a;for(var f=t._animations,s=f.length,c=0,h=0;h<s;h++)i[h]?c++:(i[h]=f[h](a,t.direction),i[h]&&c++);if(c===s)return void t._stop()}t._id=window.requestAnimationFrame(o)};this._id=window.requestAnimationFrame(o)}},{key:"_stop",value:function(){this._id&&window.cancelAnimationFrame(this._id),this._running=!1,this._rollingBack=!1}},{key:"play",value:function(){!this._rollingBack&&this._running||(this._rollingBack=!1,this.rollbackStartOffset>this.duration&&(this.offset=this.rollbackStartOffset-(this.rollbackStartOffset-this.offset)%this.duration,this.rollbackStartOffset=0),this._start(this.offset))}},{key:"stop",value:function(){this._stop(),this.offset=0,this.rollbackStartOffset=0;var t=this.direction,n=this._animations;window.requestAnimationFrame((function(){for(var r=0;r<n.length;r++)n[r](0,t)}))}},{key:"reachedToEnd",value:function(){return this.iterations>0&&this.offset>=this.iterations*this.duration}},{key:"restart",value:function(){this._stop(),this.offset=0,this._start()}},{key:"pause",value:function(){this._stop()}},{key:"reverse",value:function(){this.direction=-this.direction}}],[{key:"build",value:function(n,r){return(n=N(n,r))?{el:n.element,options:n.options||{},player:new t(n.animations,n.animationSettings,n.options)}:null}}]),t}();!function(){for(var t=0,n=["ms","moz","webkit","o"],r=0;r<n.length&&!window.requestAnimationFrame;++r)window.requestAnimationFrame=window[n[r]+"RequestAnimationFrame"],window.cancelAnimationFrame=window[n[r]+"CancelAnimationFrame"]||window[n[r]+"CancelRequestAnimationFrame"];window.requestAnimationFrame||(window.requestAnimationFrame=function(n){var r=Date.now(),e=Math.max(0,16-(r-t)),i=window.setTimeout((function(){n(r+e)}),e);return t=r+e,i},window.cancelAnimationFrame=window.clearTimeout)}();var V=/\.0+$/g;function $(t){return Number.isInteger(t)?t+"":t.toFixed(6).replace(V,"")}function G(t){return t?null==t.a||t.a>=1?"rgb("+t.r+","+t.g+","+t.b+")":"rgba("+t.r+","+t.g+","+t.b+","+t.a+")":"transparent"}var H={f:null,i:function(t,n,r){return 0===t?n:1===t?r:{x:b(t,n.x,r.x),y:b(t,n.y,r.y)}},u:function(t,n){return function(r){var e=n(r);t.setAttribute("rx",$(e.x)),t.setAttribute("ry",$(e.y))}}},Q={f:null,i:function(t,n,r){return 0===t?n:1===t?r:{width:b(t,n.width,r.width),height:b(t,n.height,r.height)}},u:function(t,n){return function(r){var e=n(r);t.setAttribute("width",$(e.width)),t.setAttribute("height",$(e.height))}}},U=Math.sin,Y=Math.cos,Z=Math.acos,J=Math.asin,K=Math.tan,W=Math.atan2,X=Math.PI/180,tt=180/Math.PI,nt=Math.sqrt,rt=function(){function t(){var r=arguments.length>0&&void 0!==arguments[0]?arguments[0]:1,e=arguments.length>1&&void 0!==arguments[1]?arguments[1]:0,i=arguments.length>2&&void 0!==arguments[2]?arguments[2]:0,o=arguments.length>3&&void 0!==arguments[3]?arguments[3]:1,u=arguments.length>4&&void 0!==arguments[4]?arguments[4]:0,a=arguments.length>5&&void 0!==arguments[5]?arguments[5]:0;n(this,t),this.m=[r,e,i,o,u,a],this.i=null,this.w=null,this.s=null}return e(t,[{key:"point",value:function(t,n){var r=this.m;return{x:r[0]*t+r[2]*n+r[4],y:r[1]*t+r[3]*n+r[5]}}},{key:"translateSelf",value:function(){var t=arguments.length>0&&void 0!==arguments[0]?arguments[0]:0,n=arguments.length>1&&void 0!==arguments[1]?arguments[1]:0;if(!t&&!n)return this;var r=this.m;return r[4]+=r[0]*t+r[2]*n,r[5]+=r[1]*t+r[3]*n,this.w=this.s=this.i=null,this}},{key:"rotateSelf",value:function(){var t=arguments.length>0&&void 0!==arguments[0]?arguments[0]:0;if(t%=360){var n=U(t*=X),r=Y(t),e=this.m,i=e[0],o=e[1];e[0]=i*r+e[2]*n,e[1]=o*r+e[3]*n,e[2]=e[2]*r-i*n,e[3]=e[3]*r-o*n,this.w=this.s=this.i=null}return this}},{key:"scaleSelf",value:function(){var t=arguments.length>0&&void 0!==arguments[0]?arguments[0]:1,n=arguments.length>1&&void 0!==arguments[1]?arguments[1]:1;if(1!==t||1!==n){var r=this.m;r[0]*=t,r[1]*=t,r[2]*=n,r[3]*=n,this.w=this.s=this.i=null}return this}},{key:"skewSelf",value:function(t,n){if(n%=360,(t%=360)||n){var r=this.m,e=r[0],i=r[1],o=r[2],u=r[3];t&&(t=K(t*X),r[2]+=e*t,r[3]+=i*t),n&&(n=K(n*X),r[0]+=o*n,r[1]+=u*n),this.w=this.s=this.i=null}return this}},{key:"resetSelf",value:function(){var t=arguments.length>0&&void 0!==arguments[0]?arguments[0]:1,n=arguments.length>1&&void 0!==arguments[1]?arguments[1]:0,r=arguments.length>2&&void 0!==arguments[2]?arguments[2]:0,e=arguments.length>3&&void 0!==arguments[3]?arguments[3]:1,i=arguments.length>4&&void 0!==arguments[4]?arguments[4]:0,o=arguments.length>5&&void 0!==arguments[5]?arguments[5]:0,u=this.m;return u[0]=t,u[1]=n,u[2]=r,u[3]=e,u[4]=i,u[5]=o,this.w=this.s=this.i=null,this}},{key:"recomposeSelf",value:function(){var t=arguments.length>0&&void 0!==arguments[0]?arguments[0]:null,n=arguments.length>1&&void 0!==arguments[1]?arguments[1]:null,r=arguments.length>2&&void 0!==arguments[2]?arguments[2]:null,e=arguments.length>3&&void 0!==arguments[3]?arguments[3]:null,i=arguments.length>4&&void 0!==arguments[4]?arguments[4]:null;return this.isIdentity||this.resetSelf(),t&&(t.x||t.y)&&this.translateSelf(t.x,t.y),n&&this.rotateSelf(n),r&&(r.x&&this.skewSelf(r.x,0),r.y&&this.skewSelf(0,r.y)),!e||1===e.x&&1===e.y||this.scaleSelf(e.x,e.y),i&&(i.x||i.y)&&this.translateSelf(i.x,i.y),this}},{key:"decompose",value:function(){var t=arguments.length>0&&void 0!==arguments[0]?arguments[0]:0,n=arguments.length>1&&void 0!==arguments[1]?arguments[1]:0,r=this.m,e=r[0]*r[0]+r[1]*r[1],i=[[r[0],r[1]],[r[2],r[3]]],o=nt(e);if(0===o)return{origin:{x:r[4],y:r[5]},translate:{x:t,y:n},scale:{x:0,y:0},skew:{x:0,y:0},rotate:0};i[0][0]/=o,i[0][1]/=o;var u=r[0]*r[3]-r[1]*r[2]<0;u&&(o=-o);var a=i[0][0]*i[1][0]+i[0][1]*i[1][1];i[1][0]-=i[0][0]*a,i[1][1]-=i[0][1]*a;var l=nt(i[1][0]*i[1][0]+i[1][1]*i[1][1]);if(0===l)return{origin:{x:r[4],y:r[5]},translate:{x:t,y:n},scale:{x:o,y:0},skew:{x:0,y:0},rotate:0};i[1][0]/=l,i[1][1]/=l,a/=l;var f=0;return i[1][1]<0?(f=Z(i[1][1])*tt,i[0][1]<0&&(f=360-f)):f=J(i[0][1])*tt,u&&(f=-f),a=W(a,nt(i[0][0]*i[0][0]+i[0][1]*i[0][1]))*tt,{origin:{x:r[4],y:r[5]},translate:{x:t,y:n},scale:{x:o,y:l},skew:{x:a,y:0},rotate:f}}},{key:"toString",value:function(){return null===this.s&&(this.s="matrix("+this.m.map(it).join(" ")+")"),this.s}},{key:"determinant",get:function(){var t=this.m;return t[0]*t[3]-t[1]*t[2]}},{key:"isIdentity",get:function(){if(null===this.i){var t=this.m;this.i=1===t[0]&&0===t[1]&&0===t[2]&&1===t[3]&&0===t[4]&&0===t[5]}return this.i}}]),t}(),et=/\.0+$/;function it(t){return Number.isInteger(t)?t:t.toFixed(14).replace(et,"")}Object.freeze({M:2,L:2,Z:0,H:1,V:1,C:6,Q:4,T:2,S:4,A:7});function ot(t,n,r){return t+(n-t)*r}function ut(t,n,r){var e=arguments.length>3&&void 0!==arguments[3]&&arguments[3],i={x:ot(t.x,n.x,r),y:ot(t.y,n.y,r)};return e&&(i.a=at(t,n)),i}function at(t,n){return Math.atan2(n.y-t.y,n.x-t.x)}function lt(t,n,r,e){var i=1-e;return i*i*t+2*i*e*n+e*e*r}function ft(t,n,r,e){return 2*(1-e)*(n-t)+2*e*(r-n)}function st(t,n,r,e){var i=arguments.length>4&&void 0!==arguments[4]&&arguments[4],o={x:lt(t.x,n.x,r.x,e),y:lt(t.y,n.y,r.y,e)};return i&&(o.a=ct(t,n,r,e)),o}function ct(t,n,r,e){return Math.atan2(ft(t.y,n.y,r.y,e),ft(t.x,n.x,r.x,e))}function ht(t,n,r,e,i){var o=i*i;return i*o*(e-t+3*(n-r))+3*o*(t+r-2*n)+3*i*(n-t)+t}function vt(t,n,r,e,i){var o=1-i;return 3*(o*o*(n-t)+2*o*i*(r-n)+i*i*(e-r))}function yt(t,n,r,e,i){var o=arguments.length>5&&void 0!==arguments[5]&&arguments[5],u={x:ht(t.x,n.x,r.x,e.x,i),y:ht(t.y,n.y,r.y,e.y,i)};return o&&(u.a=dt(t,n,r,e,i)),u}function dt(t,n,r,e,i){return Math.atan2(vt(t.y,n.y,r.y,e.y,i),vt(t.x,n.x,r.x,e.x,i))}function gt(t,n,r){var e=arguments.length>3&&void 0!==arguments[3]&&arguments[3];if(mt(n)){if(wt(r))return st(n,r.start,r,t,e)}else if(mt(r)){if(n.end)return st(n,n.end,r,t,e)}else{if(n.end)return r.start?yt(n,n.end,r.start,r,t,e):st(n,n.end,r,t,e);if(r.start)return st(n,r.start,r,t,e)}return ut(n,r,t,e)}function pt(t,n,r){var e=gt(t,n,r,!0);return e.a=function(t){var n=arguments.length>1&&void 0!==arguments[1]&&arguments[1];return n?t+Math.PI:t}(e.a)/p,e}function mt(t){return!t.type||"corner"===t.type}function wt(t){return null!=t.start&&!mt(t)}var bt=new rt;var kt={f:$,i:w},xt={f:$,i:function(t,n,r){var e=w(t,n,r);return e<=0?0:e>=1?1:e}};function At(t,n,r,e,i,o,u,a){return n=function(t,n,r){for(var e,i,o,u=t.length-1,a={},l=0;l<=u;l++)(e=t[l]).e&&(e.e=n(e.e)),e.v&&"g"===(i=e.v).t&&i.r&&(o=r.getElementById(i.r))&&(a[i.r]=o.querySelectorAll("stop"));return a}(t,e,a),function(e){var i,o=r(e,t,_t);return o?"c"===o.t?G(o.v):"g"===o.t?(n[o.r]&&function(t,n){for(var r=0,e=t.length;r<e;r++)t[r].setAttribute("stop-color",G(n[r]))}(n[o.r],o.v),(i=o.r)?"url(#"+i+")":"none"):"none":"none"}}function _t(t,n,r){if(0===t)return n;if(1===t)return r;if(n&&r){var e=n.t;if(e===r.t)switch(n.t){case"c":return{t:e,v:A(t,n.v,r.v)};case"g":if(n.r===r.r)return{t:e,v:_(t,n.v,r.v),r:n.r}}}return m(t,n,r)}var St={fill:At,"fill-opacity":xt,stroke:At,"stroke-opacity":xt,"stroke-width":kt,"stroke-dashoffset":{f:$,i:w},"stroke-dasharray":{f:function(t){var n=arguments.length>1&&void 0!==arguments[1]?arguments[1]:" ";return t&&t.length?t.map($).join(n):""},i:function(t,n,r){var e,i,o,u=n.length,a=r.length;if(u!==a)if(0===u)n=S(u=a,0);else if(0===a)a=u,r=S(u,0);else{var l=(o=(e=u)*(i=a)/function(t,n){for(var r;n;)r=n,n=t%n,t=r;return t||1}(e,i))<0?-o:o;n=O(n,Math.floor(l/u)),r=O(r,Math.floor(l/a)),u=a=l}for(var f=[],s=0;s<u;s++)f.push(g(b(t,n[s],r[s]),6));return f}},opacity:xt,transform:function(n,r,e,i){if(!(n=function(n,r){if(!n||"object"!==t(n))return null;var e=!1;for(var i in n)n.hasOwnProperty(i)&&(n[i]&&n[i].length?(n[i].forEach((function(t){t.e&&(t.e=r(t.e))})),e=!0):delete n[i]);return e?n:null}(n,i)))return null;var o=function(t,i,o){var u=arguments.length>3&&void 0!==arguments[3]?arguments[3]:null;return n[t]?e(i,n[t],o):r&&r[t]?r[t]:u};return r&&r.a&&n.o?function(t){var r=e(t,n.o,pt);return bt.recomposeSelf(r,o("r",t,w,0)+r.a,o("k",t,k),o("s",t,k),o("t",t,k)).toString()}:function(t){return bt.recomposeSelf(o("o",t,gt,null),o("r",t,w,0),o("k",t,k),o("s",t,k),o("t",t,k)).toString()}},r:kt,"#size":Q,"#radius":H,_:function(t,n){if(Array.isArray(t))for(var r=0;r<t.length;r++)this[t[r]]=n;else this[t]=n}};return function(t){!function(t,n){if("function"!=typeof n&&null!==n)throw new TypeError("Super expression must either be null or a function");t.prototype=Object.create(n&&n.prototype,{constructor:{value:t,writable:!0,configurable:!0}}),n&&o(t,n)}(u,t);var r=a(u);function u(){return n(this,u),r.apply(this,arguments)}return e(u,null,[{key:"build",value:function(t){var n=l(i(u),"build",this).call(this,t,St),r=(n.el,n.options,n.player);return function(t){t.play()}(r),r}}]),u}(L)}));
__SVGATOR_PLAYER__.build({"root":"ekvzva8n3031","animations":[{"duration":8000,"direction":1,"iterations":0,"fill":1,"alternate":false,"elements":{"ekvzva8n30320":{"transform":{"data":{"o":{"x":-120.5,"y":-172.75,"type":"corner"},"s":{"x":1.0065106698814121,"y":1.00163455263075}},"keys":{"r":[{"t":0,"v":0.05934390294676978},{"t":3000,"v":1.002657504075791}]}}},"ekvzva8n30321":{"transform":{"data":{"o":{"x":589.189035805,"y":156.16525950999977,"type":"corner"},"s":{"x":0.920769782580642,"y":0.9363969940287035},"t":{"x":-730.7277130954694,"y":-321.96153539886734}},"keys":{"r":[{"t":0,"v":-0.04122675875243087},{"t":100,"v":-0.005679738255531419},{"t":3000,"v":2.1413648023535927}]}}}}}],"options":{"start":"load","hover":"freeze","click":"freeze","scroll":25},"animationSettings":{"duration":8000,"direction":1,"iterations":0,"fill":1,"alternate":false}})]]></script></svg>